HIERARCHY
ROOT Hips
{
	OFFSET 0.00 0.00 0.00
	CHANNELS 6 Xposition Yposition Zposition Yrotation Xrotation Zrotation
	JOINT LHipJoint
	{
		OFFSET	0.0000	0.0000	0.0000
		CHANNELS 3 Yrotation Xrotation Zrotation
		JOINT LeftUpLeg
		{
			OFFSET	1.0138	-0.0809	-0.0827
			CHANNELS 3 Yrotation Xrotation Zrotation
			JOINT LeftLeg
			{
				OFFSET	0.4110	-3.9095	0.3245
				CHANNELS 3 Yrotation Xrotation Zrotation
				JOINT LeftFoot
				{
					OFFSET	0.3810	-4.0555	-0.1470
					CHANNELS 3 Yrotation Xrotation Zrotation
					JOINT LeftToeBase
					{
						OFFSET	0.1396	-0.4462	1.3079
						CHANNELS 3 Yrotation Xrotation Zrotation
						End Site
						{
							OFFSET 0.0161 -0.0248 0.1809
						}
					}
				}
			}
		}
	}
	JOINT LowerBack
	{
		OFFSET	0.0000	0.7977	-0.3873
		CHANNELS 3 Yrotation Xrotation Zrotation
		JOINT Spine
		{
			OFFSET	0.0000	1.4131	0.1715
			CHANNELS 3 Yrotation Xrotation Zrotation
			JOINT Spine1
			{
				OFFSET	0.0000	1.4392	-0.1032
				CHANNELS 3 Yrotation Xrotation Zrotation
				JOINT LeftShoulder
				{
					OFFSET	0.2274	1.0382	0.4032
					CHANNELS 3 Yrotation Xrotation Zrotation
					JOINT LeftArm
					{
						OFFSET	1.4730	-0.2267	-0.0231
						CHANNELS 3 Yrotation Xrotation Zrotation
						JOINT LeftForeArm
						{
							OFFSET	1.6131	-1.8059	0.0081
							CHANNELS 3 Yrotation Xrotation Zrotation
							JOINT LeftHand
							{
								OFFSET	1.2197	-1.2423	1.6317
								CHANNELS 3 Yrotation Xrotation Zrotation
								JOINT LThumb
								{
									OFFSET	0.0109	-0.0753	0.4387
									CHANNELS 3 Yrotation Xrotation Zrotation
									End Site
									{
										OFFSET -0.2090 -0.0868 0.2097
									}
								}
								JOINT LeftFingerBase
								{
									OFFSET	0.1071	-0.1567	0.2607
									CHANNELS 3 Yrotation Xrotation Zrotation
									JOINT LeftHandFinger1
									{
										OFFSET	0.1706	-0.2492	0.6830
										CHANNELS 3 Yrotation Xrotation Zrotation
										End Site
										{
											OFFSET 0.0335 -0.1507 0.2071
										}
									}
								}
							}
						}
					}
				}
				JOINT Neck
				{
					OFFSET	0.0000	1.7498	0.2381
					CHANNELS 3 Yrotation Xrotation Zrotation
					JOINT Neck1
					{
						OFFSET	0.0000	0.5043	0.1959
						CHANNELS 3 Yrotation Xrotation Zrotation
						JOINT Head
						{
							OFFSET	0.0000	0.5044	0.1959
							CHANNELS 3 Yrotation Xrotation Zrotation
							End Site
							{
								OFFSET 0.0000 1.4798 -0.0693
							}
						}
					}
				}
				JOINT RightShoulder
				{
					OFFSET	-0.2274	1.0382	0.4032
					CHANNELS 3 Yrotation Xrotation Zrotation
					JOINT RightArm
					{
						OFFSET	-1.4730	-0.2267	-0.0231
						CHANNELS 3 Yrotation Xrotation Zrotation
						JOINT RightForeArm
						{
							OFFSET	-1.6131	-1.8059	0.0081
							CHANNELS 3 Yrotation Xrotation Zrotation
							JOINT RightHand
							{
								OFFSET	-1.2197	-1.2423	1.6317
								CHANNELS 3 Yrotation Xrotation Zrotation
								JOINT RThumb
								{
									OFFSET	-0.0109	-0.0753	0.4387
									CHANNELS 3 Yrotation Xrotation Zrotation
									End Site
									{
										OFFSET 0.2090 -0.0868 0.2097
									}
								}
								JOINT RightFingerBase
								{
									OFFSET	-0.1071	-0.1567	0.2607
									CHANNELS 3 Yrotation Xrotation Zrotation
									JOINT RightHandFinger1
									{
										OFFSET	-0.1706	-0.2492	0.6830
										CHANNELS 3 Yrotation Xrotation Zrotation
										End Site
										{
											OFFSET -0.0335 -0.1507 0.2071
										}
									}
								}
							}
						}
					}
				}
			}
		}
	}
	JOINT RHipJoint
	{
		OFFSET	0.0000	0.0000	0.0000
		CHANNELS 3 Yrotation Xrotation Zrotation
		JOINT RightUpLeg
		{
			OFFSET	-1.0138	-0.0809	-0.0827
			CHANNELS 3 Yrotation Xrotation Zrotation
			JOINT RightLeg
			{
				OFFSET	-0.4110	-3.9095	0.3245
				CHANNELS 3 Yrotation Xrotation Zrotation
				JOINT RightFoot
				{
					OFFSET	-0.3810	-4.0555	-0.1470
					CHANNELS 3 Yrotation Xrotation Zrotation
					JOINT RightToeBase
					{
						OFFSET	-0.1396	-0.4462	1.3079
						CHANNELS 3 Yrotation Xrotation Zrotation
						End Site
						{
							OFFSET -0.0161 -0.0248 0.1809
						}
					}
				}
			}
		}
	}
}
MOTION
Frames: 9
Frame Time: 0.0333333
0.1016 8.5094 0.3370 -0.3688 -2.4528 3.4343 0.0000 -0.0000 0.0000 -2.2089 -2.0523 -11.6949 0.0572 19.4058 -3.1268 -2.9878 -14.5490 13.7041 0.0000 -0.0056 0.0000 0.0000 -0.0000 0.0000 -1.1845 0.4226 -1.0304 -2.3042 0.8559 -1.0328 -12.5018 2.2955 -1.3833 -22.8552 2.5182 -15.0652 13.1300 15.4071 -0.3241 37.8456 -8.0534 0.0466 35.1967 -1.8595 27.4681 -0.6992 17.8565 -5.8670 -1.5480 -9.3272 1.3096 0.1964 -1.9348 -1.8024 0.1966 -1.9349 -1.8024 -0.7219 -6.1655 -1.9733 0.5694 0.9366 1.7933 26.9256 17.2889 26.8321 -11.2161 13.4328 0.7640 -27.4498 -2.2592 6.9461 -38.0418 6.7194 -29.8877 -1.9302 15.4139 3.6121 3.7914 -6.5217 0.4665 0.0000 -0.0000 0.0000 -8.3111 -25.3129 5.7039 -10.7405 39.8960 -4.4636 -0.2066 3.8019 -15.0153 -0.0772 -12.2407 1.9857 
0.0855 8.4483 0.3131 0.2997 -1.9729 3.7992 0.0000 -0.0000 0.0000 -1.2440 -0.0250 -12.2069 -1.5668 20.4589 -3.0142 -3.5905 -17.7479 13.8878 0.0000 -0.0056 0.0000 0.0000 -0.0000 0.0000 -1.6261 0.1033 -1.1287 -3.1648 0.1827 -2.0843 -12.4858 2.2785 -1.3049 -22.0914 3.1505 -13.2506 9.7874 11.9294 -1.0497 36.7849 -5.0377 0.4953 35.1967 -1.8595 27.4681 -0.6992 17.8565 -5.8670 -1.5480 -9.3272 1.3096 0.1655 -1.8781 -1.6859 0.1655 -1.8781 -1.6860 -0.7305 -6.4806 -1.8582 0.6746 0.9456 1.8382 25.7024 18.3127 27.2139 -10.7772 12.9736 0.8556 -26.7267 -1.6798 6.2364 -38.0417 6.7195 -29.8877 -1.9302 15.4139 3.6121 3.7914 -6.5217 0.4665 0.0000 -0.0000 0.0000 -8.2124 -25.0083 5.7145 -9.7344 25.5111 -2.2913 0.4470 0.6905 -16.9546 -0.0000 -0.0000 -0.0000 
0.0665 8.3516 0.3199 0.9004 -1.9028 4.4269 0.0000 -0.0000 0.0000 0.0988 2.5850 -12.4922 -3.5764 21.8190 -3.5965 -4.2673 -21.3583 14.4784 0.0000 -0.0048 0.0000 0.0000 -0.0000 0.0000 -1.9173 -0.3124 -1.3590 -3.7454 -0.7042 -3.4155 -12.4639 2.2685 -1.2633 -20.8664 3.8691 -11.7565 6.7492 8.6603 -1.5326 36.0652 -3.4418 1.3530 35.1967 -1.8595 27.4681 -0.6992 17.8565 -5.8670 -1.5480 -9.3272 1.3096 0.1321 -1.9044 -1.5573 0.1323 -1.9044 -1.5571 -0.7489 -6.7660 -1.7109 0.7133 0.9538 2.0024 25.2356 19.3256 27.6561 -10.6909 12.8829 0.8733 -25.6459 -0.9861 5.7121 -38.0418 6.7195 -29.8877 -1.9302 15.4139 3.6121 3.7914 -6.5217 0.4664 0.0000 -0.0000 0.0000 -8.8689 -25.0509 5.2636 -6.7591 13.4805 -0.4519 0.5772 -0.9051 -12.1478 -0.0000 0.0000 0.0000 
0.0424 8.2197 0.3576 1.4424 -2.1242 5.5458 0.0000 -0.0000 0.0000 0.7765 5.8205 -12.7283 -5.2472 22.8250 -4.8614 -5.1731 -25.0590 15.5475 0.0000 -0.0054 -0.0000 0.0000 -0.0000 0.0000 -2.1252 -0.6857 -1.8240 -4.1131 -1.4928 -4.6543 -12.3673 2.2584 -1.2636 -19.6435 4.2374 -10.7770 4.7135 6.4262 -1.7589 35.5244 -3.8120 2.1462 35.1967 -1.8595 27.4682 -0.6992 17.8565 -5.8670 -1.5480 -9.3272 1.3096 0.1116 -2.0076 -1.4787 0.1117 -2.0075 -1.4786 -0.7601 -7.0220 -1.6417 0.7101 0.9594 2.1744 25.0567 20.0232 28.0469 -11.0744 13.2848 0.7939 -24.6085 -0.6995 5.5467 -38.0418 6.7194 -29.8877 -1.9302 15.4139 3.6121 3.7914 -6.5217 0.4665 0.0000 -0.0000 0.0000 -10.2688 -28.7570 5.2197 -3.1974 11.3206 -0.2934 1.5957 -7.3565 -12.3865 -0.0000 0.0000 -0.0000 
0.0147 8.1253 0.3683 1.8309 -2.1802 6.0896 0.0000 -0.0000 0.0000 0.7763 9.7400 -12.2860 -6.3593 21.4378 -5.9155 -6.0612 -27.3617 16.8959 0.0000 -0.0057 0.0000 0.0000 -0.0000 0.0000 -2.2679 -0.8965 -2.2109 -4.3608 -1.9360 -5.4080 -12.1716 2.2475 -1.3165 -18.7421 4.0422 -10.4499 3.9865 5.6219 -1.8204 34.9342 -5.4810 2.4622 35.1967 -1.8595 27.4681 -0.6992 17.8565 -5.8670 -1.5480 -9.3272 1.3096 0.1172 -2.1689 -1.4896 0.1173 -2.1689 -1.4896 -0.7214 -7.2673 -1.7661 0.6749 0.9586 2.2179 24.7006 20.1419 28.2754 -12.0182 14.2661 0.5875 -23.6819 -1.0539 5.5369 -38.0418 6.7195 -29.8877 -1.9302 15.4139 3.6121 3.7914 -6.5217 0.4665 0.0000 -0.0000 0.0000 -10.9137 -29.6199 5.1956 0.0194 7.5056 0.2300 1.9705 -11.9860 -13.0694 -0.0000 -0.0000 -0.0000 
-0.0116 8.0494 0.3548 1.9887 -2.2439 6.1881 0.0000 -0.0000 0.0000 1.0674 13.3867 -11.8877 -6.4730 20.3836 -6.0247 -7.8652 -29.5244 21.3180 -0.0000 -2.0999 0.0000 0.0000 -0.0000 0.0000 -2.3767 -0.9146 -2.2529 -4.5383 -1.9768 -5.4440 -11.9135 2.2378 -1.4075 -18.1691 3.3814 -10.8878 4.5001 6.1903 -1.7780 34.1659 -7.2443 2.0680 35.1967 -1.8595 27.4681 -0.6992 17.8565 -5.8670 -1.5480 -9.3272 1.3096 0.1619 -2.3689 -1.5620 0.1620 -2.3689 -1.5619 -0.5304 -7.5128 -2.1556 0.6174 0.9503 2.0832 23.9659 19.6533 28.2894 -13.4311 15.7133 0.2491 -22.8615 -1.9306 5.4413 -38.0418 6.7195 -29.8877 -1.9302 15.4139 3.6121 3.7914 -6.5217 0.4665 0.0000 -0.0000 0.0000 -9.4282 -31.4350 4.5396 -0.8434 9.5382 0.3604 1.9711 -12.5533 -12.6858 -0.0000 0.0000 -0.0000 
-0.0435 7.9960 0.3575 1.8960 -2.5017 5.7710 0.0000 -0.0000 0.0000 1.9526 15.1374 -10.6628 -7.6450 22.9172 -6.5494 -7.1564 -27.9773 20.0077 0.0000 -7.7489 -0.0000 0.0000 -0.0000 0.0000 -2.4388 -0.7627 -1.9573 -4.6187 -1.6509 -4.6462 -11.6707 2.2261 -1.4762 -17.6821 2.5536 -12.1823 6.0153 7.8583 -1.6233 33.0281 -8.1178 0.9701 35.1967 -1.8595 27.4682 -0.6992 17.8565 -5.8670 -1.5480 -9.3272 1.3096 0.2499 -2.5946 -1.6082 0.2500 -2.5946 -1.6082 -0.0824 -7.7543 -2.7762 0.5689 0.9389 1.8539 23.0211 18.7988 28.0797 -14.9572 17.2451 -0.1550 -22.3038 -2.9840 5.2648 -38.0417 6.7195 -29.8877 -1.9302 15.4139 3.6121 3.7914 -6.5217 0.4665 0.0000 -0.0000 0.0000 -7.2389 -33.4922 4.1702 -2.8159 15.9970 0.1397 1.3599 -6.7424 -11.7042 -0.0000 0.0000 0.0000 
-0.0931 7.9882 0.3912 1.5708 -2.5702 4.7131 0.0000 -0.0000 0.0000 3.1037 16.1861 -8.9543 -7.1137 26.1613 -5.8508 -6.1089 -23.3430 17.0789 0.0000 -17.0496 -0.0108 0.0000 -0.0000 0.0000 -2.4092 -0.5281 -1.4503 -4.5389 -1.1386 -3.2933 -11.5013 2.2017 -1.4413 -17.1140 1.8809 -14.3288 8.3179 10.3593 -1.3047 31.2447 -7.6456 -0.5459 35.1967 -1.8595 27.4681 -0.6992 17.8565 -5.8670 -1.5480 -9.3272 1.3096 0.3670 -2.8452 -1.5418 0.3670 -2.8451 -1.5418 0.6192 -7.9663 -3.4610 0.5831 0.9338 1.6892 22.2847 17.9224 27.6555 -16.0820 18.3519 -0.4778 -22.2123 -3.8190 5.1999 -38.0417 6.7195 -29.8877 -1.9302 15.4139 3.6121 3.7914 -6.5216 0.4665 0.0000 -0.0000 0.0000 -6.7864 -32.5607 5.6560 -1.2606 19.7409 0.2497 0.0983 2.6189 -10.7812 0.0000 -0.0000 -0.0000 
-0.1511 8.0277 0.4123 0.8382 -2.3241 3.0780 0.0000 -0.0000 0.0000 3.9384 15.9197 -7.7396 -4.8284 30.1561 -3.4816 -3.0857 -15.4966 13.0999 0.0242 -31.6238 -0.8875 0.0000 -0.0000 0.0000 -2.2522 -0.2607 -0.7358 -4.2087 -0.5639 -1.7382 -11.4036 2.1557 -1.2628 -16.6439 1.5720 -17.1217 11.2706 13.4897 -0.7523 28.7773 -5.8947 -1.9385 35.1967 -1.8595 27.4681 -0.6992 17.8565 -5.8670 -1.5480 -9.3272 1.3096 0.4792 -3.1264 -1.3441 0.4793 -3.1263 -1.3440 1.4042 -8.0909 -3.9778 0.7010 0.9430 1.7113 22.1596 17.2433 27.0838 -16.4250 18.6854 -0.5804 -22.5543 -4.1672 5.3387 -38.0417 6.7195 -29.8877 -1.9302 15.4139 3.6121 3.7914 -6.5217 0.4664 0.0000 -0.0000 0.0000 -6.0613 -29.7216 8.0721 -0.0362 19.5854 -0.3445 -0.7616 8.9745 -10.0222 0.0000 -0.0000 -0.0000 
